<svg xmlns="http://www.w3.org/2000/svg" width="61.883" height="57" viewBox="0 0 61.883 57">
  <path id="Path_1" data-name="Path 1" d="M21.953,0h3.124a8.2,8.2,0,0,1,2.567,1.742,48.208,48.208,0,0,0,6.682,5.726,7.514,7.514,0,0,0,6.312,1.465A43.609,43.609,0,0,0,46.56,6.968c6.426-2.276,12.972,2.682,14.425,7.747a22.073,22.073,0,0,1-.516,14.009,14,14,0,0,0-.558,7.572A53.028,53.028,0,0,1,61,45.812c.041,5.441-2.843,8.977-8.161,10.135a17.383,17.383,0,0,1-6.655.17c-3.93-.675-7.851-.382-11.785-.228a36.544,36.544,0,0,0-5.62.76,14.1,14.1,0,0,1-9.565-1.129,17.155,17.155,0,0,0-5.609-1.71c-1.066-.162-2.134-.311-3.2-.488a7.817,7.817,0,0,1-5.373-3.079,10.33,10.33,0,0,1-1.949-7.589,28.707,28.707,0,0,0,.446-7.213,26.37,26.37,0,0,0-2.392-7.969c-2.223-4.857-1.358-8.035,4.1-9.294A17.673,17.673,0,0,0,11.321,15.2c2.241-1.567,3.969-3.488,4.08-6.428a9.475,9.475,0,0,1,.2-1.1C16.2,3.867,18.114,1.136,21.953,0Z" transform="translate(0)" fill="#34d29b"/>
</svg>
