<svg xmlns="http://www.w3.org/2000/svg" width="61.883" height="57"><path data-name="Path 1" d="M21.953 0h3.124a8.2 8.2 0 012.567 1.742 48.208 48.208 0 006.682 5.726 7.514 7.514 0 006.312 1.465 43.609 43.609 0 005.922-1.965c6.426-2.276 12.972 2.682 14.425 7.747a22.073 22.073 0 01-.516 14.009 14 14 0 00-.558 7.572A53.028 53.028 0 0161 45.812c.041 5.441-2.843 8.977-8.161 10.135a17.383 17.383 0 01-6.655.17c-3.93-.675-7.851-.382-11.785-.228a36.544 36.544 0 00-5.62.76 14.1 14.1 0 01-9.565-1.129 17.155 17.155 0 00-5.609-1.71c-1.066-.162-2.134-.311-3.2-.488a7.817 7.817 0 01-5.373-3.079 10.33 10.33 0 01-1.949-7.589 28.707 28.707 0 00.446-7.213 26.37 26.37 0 00-2.392-7.969c-2.223-4.857-1.358-8.035 4.1-9.294a17.673 17.673 0 006.084-2.978c2.241-1.567 3.969-3.488 4.08-6.428a9.475 9.475 0 01.2-1.1C16.2 3.867 18.114 1.136 21.953 0z" fill="#34d29b"/></svg>